<svg width="1220" height="250" viewBox="0 0 1220 250" fill="none" xmlns="http://www.w3.org/2000/svg">
<path d="M223.116 205.479V85.6163H281.678C296.746 85.6163 308.048 88.4703 315.582 94.178C323.231 99.8857 327.055 107.42 327.055 116.781C327.055 123.059 325.513 128.539 322.431 133.219C319.349 137.785 315.125 141.324 309.76 143.835C304.395 146.347 298.231 147.603 291.267 147.603L294.52 140.582C302.055 140.582 308.733 141.838 314.555 144.349C320.376 146.746 324.885 150.342 328.082 155.137C331.392 159.931 333.048 165.81 333.048 172.774C333.048 183.048 328.995 191.096 320.89 196.918C312.786 202.625 300.856 205.479 285.103 205.479H223.116ZM250.685 184.589H283.048C290.239 184.589 295.662 183.447 299.315 181.164C303.082 178.767 304.966 175 304.966 169.863C304.966 164.84 303.082 161.13 299.315 158.733C295.662 156.221 290.239 154.966 283.048 154.966H248.63V134.76H278.253C284.988 134.76 290.125 133.619 293.664 131.335C297.317 128.938 299.144 125.342 299.144 120.548C299.144 115.868 297.317 112.386 293.664 110.103C290.125 107.705 284.988 106.507 278.253 106.507H250.685V184.589ZM404.563 207.534C395.089 207.534 386.298 205.993 378.193 202.911C370.202 199.829 363.239 195.491 357.303 189.897C351.481 184.303 346.914 177.74 343.604 170.205C340.407 162.671 338.81 154.452 338.81 145.548C338.81 136.644 340.407 128.425 343.604 120.89C346.914 113.356 351.537 106.792 357.474 101.199C363.411 95.6048 370.373 91.267 378.364 88.1848C386.356 85.1026 395.031 83.5615 404.392 83.5615C413.866 83.5615 422.543 85.1026 430.419 88.1848C438.411 91.267 445.317 95.6048 451.138 101.199C457.075 106.792 461.698 113.356 465.008 120.89C468.318 128.31 469.974 136.53 469.974 145.548C469.974 154.452 468.318 162.728 465.008 170.377C461.698 177.911 457.075 184.474 451.138 190.068C445.317 195.548 438.411 199.829 430.419 202.911C422.543 205.993 413.924 207.534 404.563 207.534ZM404.392 183.904C409.757 183.904 414.666 182.991 419.118 181.164C423.685 179.337 427.68 176.712 431.104 173.288C434.529 169.863 437.154 165.81 438.981 161.13C440.921 156.45 441.892 151.256 441.892 145.548C441.892 139.84 440.921 134.646 438.981 129.966C437.154 125.285 434.529 121.233 431.104 117.808C427.794 114.383 423.856 111.758 419.289 109.931C414.722 108.105 409.757 107.192 404.392 107.192C399.027 107.192 394.061 108.105 389.495 109.931C385.043 111.758 381.104 114.383 377.68 117.808C374.255 121.233 371.572 125.285 369.632 129.966C367.805 134.646 366.892 139.84 366.892 145.548C366.892 151.141 367.805 156.335 369.632 161.13C371.572 165.81 374.198 169.863 377.508 173.288C380.933 176.712 384.928 179.337 389.495 181.164C394.061 182.991 399.027 183.904 404.392 183.904ZM522.5 207.534C512.911 207.534 503.721 206.279 494.931 203.767C486.142 201.142 479.063 197.774 473.698 193.664L483.116 172.774C488.253 176.426 494.303 179.452 501.267 181.849C508.344 184.132 515.479 185.274 522.671 185.274C528.15 185.274 532.546 184.76 535.856 183.733C539.281 182.591 541.793 181.05 543.39 179.109C544.988 177.169 545.787 174.943 545.787 172.431C545.787 169.235 544.532 166.724 542.02 164.897C539.508 162.957 536.198 161.415 532.089 160.274C527.979 159.018 523.412 157.877 518.39 156.849C513.481 155.708 508.515 154.338 503.493 152.74C498.584 151.141 494.075 149.087 489.966 146.575C485.856 144.064 482.488 140.753 479.863 136.644C477.351 132.534 476.096 127.283 476.096 120.89C476.096 114.041 477.923 107.82 481.575 102.226C485.342 96.5182 490.936 92.009 498.356 88.6985C505.89 85.2739 515.308 83.5615 526.609 83.5615C534.144 83.5615 541.563 84.4747 548.87 86.3013C556.176 88.0136 562.625 90.6391 568.219 94.178L559.657 115.24C554.063 112.043 548.471 109.703 542.876 108.219C537.282 106.621 531.803 105.822 526.438 105.822C521.073 105.822 516.678 106.45 513.253 107.705C509.829 108.961 507.375 110.616 505.89 112.671C504.406 114.612 503.664 116.895 503.664 119.52C503.664 122.603 504.919 125.114 507.431 127.055C509.943 128.881 513.253 130.365 517.363 131.507C521.472 132.648 525.981 133.79 530.89 134.931C535.912 136.073 540.878 137.386 545.787 138.87C550.81 140.354 555.376 142.351 559.486 144.863C563.596 147.374 566.906 150.685 569.418 154.794C572.043 158.904 573.356 164.098 573.356 170.377C573.356 177.111 571.472 183.276 567.705 188.87C563.938 194.464 558.287 198.972 550.753 202.397C543.334 205.822 533.916 207.534 522.5 207.534Z" fill="#6393F8"/>
<path d="M707.585 85.6163H735.325V205.479H707.585V85.6163ZM653.133 205.479H625.394V85.6163H653.133V205.479ZM709.64 156.336H651.078V132.877H709.64V156.336ZM740.224 205.479L793.649 85.6163H821.046L874.642 205.479H845.532L801.697 99.6574H812.656L768.649 205.479H740.224ZM766.936 179.794L774.299 158.733H835.943L843.477 179.794H766.936ZM935.063 207.534C925.817 207.534 917.198 206.05 909.207 203.082C901.33 200 894.481 195.663 888.659 190.068C882.837 184.474 878.272 177.911 874.96 170.377C871.765 162.842 870.166 154.566 870.166 145.548C870.166 136.53 871.765 128.253 874.96 120.719C878.272 113.185 882.837 106.621 888.659 101.027C894.596 95.4336 901.501 91.1528 909.378 88.1848C917.255 85.1026 925.875 83.5615 935.234 83.5615C945.623 83.5615 954.984 85.3881 963.317 89.041C971.765 92.5798 978.842 97.8309 984.549 104.794L966.741 121.233C962.632 116.552 958.067 113.071 953.043 110.788C948.02 108.39 942.541 107.192 936.604 107.192C931.012 107.192 925.875 108.105 921.193 109.931C916.513 111.758 912.46 114.383 909.036 117.808C905.611 121.233 902.929 125.285 900.988 129.966C899.162 134.646 898.248 139.84 898.248 145.548C898.248 151.256 899.162 156.45 900.988 161.13C902.929 165.81 905.611 169.863 909.036 173.288C912.46 176.712 916.513 179.337 921.193 181.164C925.875 182.991 931.012 183.904 936.604 183.904C942.541 183.904 948.02 182.762 953.043 180.479C958.067 178.082 962.632 174.486 966.741 169.692L984.549 186.13C978.842 193.094 971.765 198.402 963.317 202.055C954.984 205.707 945.567 207.534 935.063 207.534ZM1020.41 178.082L1018.86 146.062L1076.23 85.6163H1107.05L1055.34 141.267L1039.93 157.705L1020.41 178.082ZM995.577 205.479V85.6163H1023.15V205.479H995.577ZM1077.6 205.479L1034.96 153.253L1053.11 133.562L1109.96 205.479H1077.6ZM1151.5 207.534C1141.91 207.534 1132.72 206.279 1123.93 203.767C1115.14 201.142 1108.06 197.774 1102.7 193.664L1112.12 172.774C1117.25 176.426 1123.3 179.452 1130.27 181.849C1137.34 184.132 1144.48 185.274 1151.67 185.274C1157.15 185.274 1161.54 184.76 1164.86 183.733C1168.28 182.591 1170.79 181.05 1172.39 179.109C1173.99 177.169 1174.79 174.943 1174.79 172.431C1174.79 169.235 1173.53 166.724 1171.02 164.897C1168.51 162.957 1165.2 161.415 1161.09 160.274C1156.98 159.018 1152.41 157.877 1147.39 156.849C1142.48 155.708 1137.52 154.338 1132.49 152.74C1127.58 151.141 1123.08 149.087 1118.97 146.575C1114.86 144.064 1111.49 140.753 1108.86 136.644C1106.35 132.534 1105.1 127.283 1105.1 120.89C1105.1 114.041 1106.92 107.82 1110.57 102.226C1114.34 96.5182 1119.93 92.009 1127.36 88.6985C1134.89 85.2739 1144.31 83.5615 1155.61 83.5615C1163.14 83.5615 1170.56 84.4747 1177.87 86.3013C1185.17 88.0136 1191.62 90.6391 1197.22 94.178L1188.66 115.24C1183.06 112.043 1177.47 109.703 1171.88 108.219C1166.28 106.621 1160.8 105.822 1155.44 105.822C1150.07 105.822 1145.68 106.45 1142.25 107.705C1138.83 108.961 1136.37 110.616 1134.89 112.671C1133.41 114.612 1132.66 116.895 1132.66 119.52C1132.66 122.603 1133.92 125.114 1136.43 127.055C1138.94 128.881 1142.25 130.365 1146.36 131.507C1150.47 132.648 1154.98 133.79 1159.89 134.931C1164.91 136.073 1169.88 137.386 1174.79 138.87C1179.81 140.354 1184.38 142.351 1188.49 144.863C1192.6 147.374 1195.91 150.685 1198.42 154.794C1201.04 158.904 1202.36 164.098 1202.36 170.377C1202.36 177.111 1200.47 183.276 1196.71 188.87C1192.94 194.464 1187.29 198.972 1179.75 202.397C1172.33 205.822 1162.91 207.534 1151.5 207.534Z" fill="black"/>
<path d="M165.291 104.378C159.932 104.378 154.955 107.143 152.148 111.688L121.899 156.371C120.913 157.844 121.313 159.829 122.793 160.81C123.993 161.605 125.58 161.507 126.673 160.572L156.448 134.877C156.942 134.434 157.705 134.479 158.151 134.971C158.352 135.197 158.46 135.488 158.46 135.787V216.236C158.46 216.901 157.92 217.433 157.252 217.433C156.893 217.433 156.555 217.277 156.328 217.003L66.3233 109.81C63.392 106.368 59.0879 104.383 54.5569 104.378H51.4112C42.8976 104.378 35.9961 111.245 35.9961 119.716V233.021C35.9961 241.491 42.8976 248.358 51.4112 248.358C56.7709 248.358 61.7471 245.594 64.5547 241.048L94.8036 196.365C95.7891 194.892 95.3891 192.908 93.9089 191.926C92.7093 191.132 91.1219 191.229 90.0295 192.164L60.2547 217.86C59.7598 218.303 58.9971 218.259 58.5519 217.765C58.3499 217.539 58.2427 217.248 58.2468 216.949V136.481C58.2468 135.816 58.7868 135.283 59.4548 135.283C59.8093 135.283 60.1516 135.439 60.3783 135.714L150.371 242.926C153.302 246.368 157.606 248.354 162.137 248.358H165.283C173.797 248.363 180.702 241.5 180.711 233.029V119.716C180.711 111.245 173.809 104.378 165.295 104.378H165.291Z" fill="black"/>
<path d="M85.4082 136.747C85.4082 136.747 100.579 138.251 122.332 136.935C135.474 136.147 153.035 120.897 162.47 113.66C171.918 106.407 187.841 92.9138 180.622 89.9458C173.402 86.9794 154.224 82.2302 154.224 82.2302C154.224 82.2302 177.781 99.4372 85.4082 136.747Z" fill="white" stroke="black" stroke-width="3" stroke-linejoin="round"/>
<path d="M163.196 84.6191C167.249 94.3312 141.48 114.334 105.632 129.294C69.7881 144.254 37.4503 148.503 33.3965 138.789C38.6098 130.25 35.6256 126.137 35.6256 126.137L152.938 77.178C152.938 77.178 153.801 82.1773 163.196 84.6191Z" fill="white" stroke="black" stroke-width="3" stroke-linejoin="round"/>
<path d="M28.2533 88.3948C28.3228 84.4782 29.1726 70.696 37.2425 57.8758C51.8642 34.6167 78.7207 26.6815 97.4882 29.1477C110.175 30.8262 120.402 35.5441 130.663 44.4546C133.169 46.6318 138.148 51.4303 143.382 59.0835C147.918 65.7227 149.975 70.2447 153.394 77.7544C156.047 84.1135 146.36 94.8911 126.73 106.363C99.2538 122.406 62.6685 133.699 45.0245 131.585C39.976 130.981 37.0223 129.329 36.032 126.933C32.2279 116.975 27.9425 105.683 28.2533 88.3948Z" fill="white"/>
<path d="M28.2533 88.3948C28.3228 84.4782 29.1726 70.696 37.2425 57.8758C51.8642 34.6167 78.7207 26.6815 97.4882 29.1477C110.175 30.8262 120.402 35.5441 130.663 44.4546C133.169 46.6318 138.148 51.4303 143.382 59.0835C147.918 65.7227 149.975 70.2447 153.394 77.7544C156.047 84.1135 146.36 94.8911 126.73 106.363C99.2538 122.406 62.6685 133.699 45.0245 131.585C39.976 130.981 37.0223 129.329 36.032 126.933C32.2279 116.975 27.9425 105.683 28.2533 88.3948Z" fill="#74FC00" stroke="black" stroke-width="3" stroke-linejoin="round"/>
<path d="M84.7988 136.66C84.7988 136.66 99.968 138.151 121.722 136.847C134.856 136.053 152.418 120.811 161.852 113.564C171.303 106.321 187.229 92.8267 180.005 89.8486C172.786 86.8827 153.617 82.1365 153.617 82.1365C153.617 82.1365 177.168 99.3476 84.7988 136.66Z" fill="#FFBD34" stroke="#FFBD34" stroke-width="3" stroke-linejoin="round"/>
<path d="M162.586 84.5335C166.64 94.2465 140.876 114.239 105.024 129.201C69.1816 144.16 36.8416 148.419 32.7871 138.704C38.0056 130.163 35.0125 126.056 35.0125 126.056L152.333 77.0938C152.333 77.0938 153.857 82.709 163.247 85.1528L162.586 84.5335Z" fill="#FFBD34" stroke="#FFBD34" stroke-width="3" stroke-linejoin="round"/>
<path d="M27.6363 88.3051C27.7063 84.391 28.5611 70.6124 36.6248 57.7859C51.2445 34.5282 78.1004 26.5968 96.8711 29.0604C109.565 30.7364 119.787 35.4552 130.04 44.3585C132.548 46.5345 137.533 51.3308 142.76 58.9917C147.29 65.628 149.351 70.1534 152.769 77.6518C155.423 84.0114 145.734 94.8008 126.098 106.264C98.6264 122.317 62.0396 133.599 44.3997 131.482C39.351 130.879 36.3969 129.237 35.4036 126.832C31.6192 116.884 27.3331 105.59 27.6363 88.3051Z" fill="#FFD520"/>
<path d="M27.6363 88.3051C27.7063 84.391 28.5611 70.6124 36.6248 57.7859C51.2445 34.5282 78.1004 26.5968 96.8711 29.0604C109.565 30.7364 119.787 35.4552 130.04 44.3585C132.548 46.5345 137.533 51.3308 142.76 58.9917C147.29 65.628 149.351 70.1534 152.769 77.6518C155.423 84.0114 145.734 94.8008 126.098 106.264C98.6264 122.317 62.0396 133.599 44.3997 131.482C39.351 130.879 36.3969 129.237 35.4036 126.832C31.6192 116.884 27.3331 105.59 27.6363 88.3051Z" stroke="black" stroke-width="3" stroke-linejoin="round"/>
<path d="M27.6363 88.3051C27.7063 84.391 28.5611 70.6124 36.6248 57.7859C51.2445 34.5282 78.1004 26.5968 96.8711 29.0604C109.565 30.7364 119.787 35.4552 130.04 44.3585C132.548 46.5345 137.533 51.3308 142.76 58.9917C147.29 65.628 149.351 70.1534 152.769 77.6518C155.423 84.0114 145.734 94.8008 126.098 106.264C98.6264 122.317 62.0396 133.599 44.3997 131.482C39.351 130.879 36.3969 129.237 35.4036 126.832C31.6192 116.884 27.3331 105.59 27.6363 88.3051Z" fill="url(#paint0_radial_117_244)" stroke="#FAC44B" stroke-width="3" stroke-linejoin="round"/>
<path d="M38.4131 54.4633C70.3992 8.48055 138.459 47.1001 152.372 84.3328L157.109 84.2765C140.433 44.3241 72.5615 3.50031 38.4131 54.4633Z" fill="#CCCCCC"/>
<path d="M161.825 89.3533L157.108 84.2771L152.371 84.3331L161.825 89.3533Z" fill="#CCCCCC"/>
<path d="M142.544 97.0718C127.452 60.9103 82.3601 13.5757 48.6211 42.6754C84.6069 11.0028 141.954 47.9918 157.096 84.2733L161.813 89.3509L147.247 102.143L142.544 97.0718Z" fill="#FFD467"/>
<path d="M142.548 97.0674L147.263 102.146L134.417 99.3276C120.506 62.0908 70.4058 8.48249 38.4111 54.4561C72.563 3.5015 125.871 57.1059 142.548 97.0674Z" fill="#CCCCCC"/>
<path d="M142.548 97.0674L147.263 102.146L134.417 99.3276C120.506 62.0908 70.4058 8.48249 38.4111 54.4561C72.563 3.5015 125.871 57.1059 142.548 97.0674Z" fill="#FFBD34"/>
<path d="M74.656 98.2202L72.1416 104.36L78.7697 122.211L80.1683 109.572L74.656 98.2202Z" fill="#FFBD34" stroke="#FFBD34" stroke-width="3" stroke-linecap="round" stroke-linejoin="round"/>
<path d="M46.7403 107.443L45.4189 110.657L52.0527 128.511L51.3778 116.732L46.7403 107.443Z" fill="black"/>
<path d="M78.772 122.21C78.772 122.21 53.7481 129.189 52.057 128.495C50.3666 127.812 45.4219 110.647 45.4219 110.647L72.1417 104.348L78.772 122.21Z" fill="#FFD467" stroke="#FFD467" stroke-width="3" stroke-linecap="round" stroke-linejoin="round"/>
<path d="M45.4199 110.66L47.9439 104.52L74.6586 98.2227L72.1442 104.363L45.4199 110.66Z" fill="#F4B253" stroke="#F4B253" stroke-width="3" stroke-linecap="round" stroke-linejoin="round"/>
<defs>
<radialGradient id="paint0_radial_117_244" cx="0" cy="0" r="1" gradientUnits="userSpaceOnUse" gradientTransform="translate(103.751 49.5513) rotate(157.347) scale(110.775 110.775)">
<stop offset="0.5" stop-color="#FFD046"/>
<stop offset="1" stop-color="#F0A957"/>
</radialGradient>
</defs>
</svg>
