<svg width="147" height="205" viewBox="0 0 147 205" fill="none" xmlns="http://www.w3.org/2000/svg">
<path d="M129.249 71.9814C124.296 71.9814 119.696 74.5357 117.101 78.7347L89.1415 120.016C88.2308 121.377 88.6004 123.211 89.9685 124.117C91.0773 124.852 92.5445 124.761 93.5544 123.897L121.075 100.158C121.533 99.7487 122.238 99.7905 122.649 100.245C122.836 100.454 122.935 100.723 122.935 100.999V175.324C122.935 175.938 122.436 176.43 121.819 176.43C121.487 176.43 121.175 176.286 120.965 176.033L37.7729 76.9991C35.0634 73.8195 31.0851 71.9852 26.8971 71.9814H23.9895C16.1203 71.9814 9.74121 78.3255 9.74121 86.1512V190.83C9.74121 198.656 16.1203 205 23.9895 205C28.9435 205 33.543 202.447 36.1381 198.247L64.0974 156.965C65.0082 155.605 64.6385 153.771 63.2704 152.865C62.1616 152.131 60.6944 152.221 59.6846 153.084L32.1635 176.824C31.7061 177.233 31.0012 177.192 30.5897 176.737C30.4029 176.528 30.3039 176.259 30.3077 175.982V101.64C30.3077 101.026 30.8068 100.533 31.4243 100.533C31.7519 100.533 32.0683 100.677 32.2778 100.931L115.458 199.982C118.168 203.162 122.146 204.997 126.334 205H129.242C137.111 205.005 143.494 198.664 143.502 190.838V86.1512C143.502 78.3255 137.122 71.9814 129.253 71.9814H129.249Z" fill="white"/>
<path d="M55.4131 101.886C55.4131 101.886 69.4352 103.276 89.5418 102.06C101.689 101.332 117.921 87.2424 126.642 80.5566C135.374 73.8556 150.092 61.3898 143.419 58.6477C136.747 55.9071 119.02 51.5195 119.02 51.5195C119.02 51.5195 140.794 67.4166 55.4131 101.886Z" fill="white" stroke="white" stroke-width="3" stroke-linejoin="round"/>
<path d="M127.313 53.7262C131.06 62.699 107.241 81.1789 74.107 95.0003C40.9758 108.821 11.0858 112.746 7.33887 103.773C12.1576 95.8832 9.39925 92.0833 9.39925 92.0833L117.832 46.8516C117.832 46.8516 118.629 51.4703 127.313 53.7262Z" fill="white" stroke="white" stroke-width="3" stroke-linejoin="round"/>
<path d="M2.58409 57.2147C2.64835 53.5963 3.43385 40.8633 10.8929 29.0191C24.4078 7.53065 49.2315 0.199475 66.5784 2.47799C78.305 4.02864 87.7576 8.38745 97.2424 16.6196C99.5579 18.631 104.16 23.0642 108.998 30.1348C113.191 36.2686 115.093 40.4463 118.252 47.3843C120.705 53.2593 111.751 63.2164 93.6072 73.8148C68.2103 88.6367 34.3943 99.0702 18.0858 97.1167C13.4195 96.5587 10.6893 95.0329 9.77405 92.8192C6.25789 83.6188 2.29683 73.1865 2.58409 57.2147Z" fill="white"/>
<path d="M2.58409 57.2147C2.64835 53.5963 3.43385 40.8633 10.8929 29.0191C24.4078 7.53065 49.2315 0.199475 66.5784 2.47799C78.305 4.02864 87.7576 8.38745 97.2424 16.6196C99.5579 18.631 104.16 23.0642 108.998 30.1348C113.191 36.2686 115.093 40.4463 118.252 47.3843C120.705 53.2593 111.751 63.2164 93.6072 73.8148C68.2103 88.6367 34.3943 99.0702 18.0858 97.1167C13.4195 96.5587 10.6893 95.0329 9.77405 92.8192C6.25789 83.6188 2.29683 73.1865 2.58409 57.2147Z" fill="#74FC00" stroke="white" stroke-width="3" stroke-linejoin="round"/>
<path d="M54.8496 101.805C54.8496 101.805 68.8706 103.183 88.9777 101.978C101.118 101.244 117.35 87.1634 126.07 80.4677C134.806 73.7761 149.527 61.309 142.849 58.5577C136.177 55.8175 118.459 51.4326 118.459 51.4326C118.459 51.4326 140.227 67.3335 54.8496 101.805Z" fill="#FFBD34" stroke="#FFBD34" stroke-width="3" stroke-linejoin="round"/>
<path d="M126.749 53.6473C130.495 62.6209 106.682 81.091 73.5438 94.9143C40.4141 108.734 10.522 112.669 6.77441 103.694C11.5979 95.8034 8.83131 92.0089 8.83131 92.0089L117.271 46.7739C117.271 46.7739 118.68 51.9617 127.359 54.2195L126.749 53.6473Z" fill="#FFBD34" stroke="#FFBD34" stroke-width="3" stroke-linejoin="round"/>
<path d="M2.01407 57.1318C2.0788 53.5157 2.86889 40.786 10.3222 28.936C23.8353 7.44882 48.6583 0.121285 66.0082 2.39727C77.7412 3.9457 87.1897 8.3053 96.6668 16.5308C98.9847 18.5411 103.592 22.9722 108.424 30.05C112.611 36.1811 114.516 40.3619 117.675 47.2895C120.128 53.165 111.173 63.133 93.0225 73.7237C67.6306 88.5544 33.8132 98.9773 17.5085 97.022C12.8421 96.4642 10.1116 94.9477 9.19342 92.7257C5.69546 83.5348 1.73377 73.1012 2.01407 57.1318Z" fill="#FFD520"/>
<path d="M2.01407 57.1318C2.0788 53.5157 2.86889 40.786 10.3222 28.936C23.8353 7.44882 48.6583 0.121285 66.0082 2.39727C77.7412 3.9457 87.1897 8.3053 96.6668 16.5308C98.9847 18.5411 103.592 22.9722 108.424 30.05C112.611 36.1811 114.516 40.3619 117.675 47.2895C120.128 53.165 111.173 63.133 93.0225 73.7237C67.6306 88.5544 33.8132 98.9773 17.5085 97.022C12.8421 96.4642 10.1116 94.9477 9.19342 92.7257C5.69546 83.5348 1.73377 73.1012 2.01407 57.1318Z" stroke="white" stroke-width="3" stroke-linejoin="round"/>
<path d="M2.01407 57.1318C2.0788 53.5157 2.86889 40.786 10.3222 28.936C23.8353 7.44882 48.6583 0.121285 66.0082 2.39727C77.7412 3.9457 87.1897 8.3053 96.6668 16.5308C98.9847 18.5411 103.592 22.9722 108.424 30.05C112.611 36.1811 114.516 40.3619 117.675 47.2895C120.128 53.165 111.173 63.133 93.0225 73.7237C67.6306 88.5544 33.8132 98.9773 17.5085 97.022C12.8421 96.4642 10.1116 94.9477 9.19342 92.7257C5.69546 83.5348 1.73377 73.1012 2.01407 57.1318Z" fill="url(#paint0_radial_117_269)" stroke="#FAC44B" stroke-width="3" stroke-linejoin="round"/>
<path d="M11.9756 25.8664C41.5406 -16.6158 104.448 19.0637 117.309 53.462L121.687 53.4099C106.273 16.499 43.5392 -21.2169 11.9756 25.8664Z" fill="#CCCCCC"/>
<path d="M126.045 58.1004L121.686 53.4106L117.308 53.4624L126.045 58.1004Z" fill="#CCCCCC"/>
<path d="M108.223 65.2314C94.2738 31.8228 52.5954 -11.9084 21.4102 14.976C54.672 -14.2854 107.678 19.8877 121.674 53.4072L126.034 58.0982L112.571 69.916L108.223 65.2314Z" fill="#FFD467"/>
<path d="M108.228 65.2274L112.586 69.9195L100.712 67.3156C87.8547 32.9136 41.5465 -16.6137 11.9736 25.86C43.5404 -21.2155 92.8132 28.3081 108.228 65.2274Z" fill="#CCCCCC"/>
<path d="M108.228 65.2274L112.586 69.9195L100.712 67.3156C87.8547 32.9136 41.5465 -16.6137 11.9736 25.86C43.5404 -21.2155 92.8132 28.3081 108.228 65.2274Z" fill="#FFBD34"/>
<path d="M45.4744 66.292L43.1504 71.9646L49.2768 88.4567L50.5695 76.7795L45.4744 66.292Z" fill="#FFBD34" stroke="#FFBD34" stroke-width="3" stroke-linecap="round" stroke-linejoin="round"/>
<path d="M19.6726 74.813L18.4512 77.7825L24.5828 94.2768L23.959 83.3947L19.6726 74.813Z" fill="white"/>
<path d="M49.2789 88.4558C49.2789 88.4558 26.1491 94.9036 24.586 94.2623C23.0235 93.6311 18.4531 77.7726 18.4531 77.7726L43.1505 71.9531L49.2789 88.4558Z" fill="#FFD467" stroke="#FFD467" stroke-width="3" stroke-linecap="round" stroke-linejoin="round"/>
<path d="M18.4521 77.7849L20.7851 72.1128L45.4777 66.2944L43.1536 71.9672L18.4521 77.7849Z" fill="#F4B253" stroke="#F4B253" stroke-width="3" stroke-linecap="round" stroke-linejoin="round"/>
<defs>
<radialGradient id="paint0_radial_117_269" cx="0" cy="0" r="1" gradientUnits="userSpaceOnUse" gradientTransform="translate(72.3675 21.3283) rotate(157.357) scale(102.383 102.349)">
<stop offset="0.5" stop-color="#FFD046"/>
<stop offset="1" stop-color="#F0A957"/>
</radialGradient>
</defs>
</svg>
